<mxfile host="app.diagrams.net" modified="2023-08-20T19:34:48.940Z" agent="Mozilla/5.0 (Windows NT 10.0; Win64; x64) AppleWebKit/537.36 (KHTML, like Gecko) Chrome/115.0.0.0 Safari/537.36 Edg/115.0.1901.203" etag="WvZmrFQhCiYN6OEsVld5" version="21.6.8" type="google">
  <diagram name="Página-1" id="dr2vKB8asR7iLhc4-MHA">
    <mxGraphModel grid="1" page="1" gridSize="10" guides="1" tooltips="1" connect="1" arrows="1" fold="1" pageScale="1" pageWidth="827" pageHeight="1169" math="0" shadow="0">
      <root>
        <mxCell id="0" />
        <mxCell id="1" parent="0" />
        <mxCell id="YdzRXmpzqwXNYGKjc3Bm-2" value="ALUNO" style="shape=umlActor;verticalLabelPosition=bottom;verticalAlign=top;html=1;" vertex="1" parent="1">
          <mxGeometry x="120" y="160" width="40" height="80" as="geometry" />
        </mxCell>
        <mxCell id="YdzRXmpzqwXNYGKjc3Bm-7" value="REALIZA CADASTRO" style="ellipse;whiteSpace=wrap;html=1;" vertex="1" parent="1">
          <mxGeometry x="300" y="70" width="140" height="70" as="geometry" />
        </mxCell>
        <mxCell id="YdzRXmpzqwXNYGKjc3Bm-8" value="REALIZA REVERSA" style="ellipse;whiteSpace=wrap;html=1;" vertex="1" parent="1">
          <mxGeometry x="300" y="250" width="140" height="70" as="geometry" />
        </mxCell>
        <mxCell id="YdzRXmpzqwXNYGKjc3Bm-9" value="CONSULTA O CARDÁPIO" style="ellipse;whiteSpace=wrap;html=1;" vertex="1" parent="1">
          <mxGeometry x="530" y="251" width="140" height="70" as="geometry" />
        </mxCell>
        <mxCell id="YdzRXmpzqwXNYGKjc3Bm-10" value="" style="endArrow=block;dashed=1;endFill=0;endSize=12;html=1;rounded=0;exitX=1;exitY=0.5;exitDx=0;exitDy=0;" edge="1" parent="1" source="YdzRXmpzqwXNYGKjc3Bm-8">
          <mxGeometry width="160" relative="1" as="geometry">
            <mxPoint x="430" y="240" as="sourcePoint" />
            <mxPoint x="530" y="285" as="targetPoint" />
          </mxGeometry>
        </mxCell>
        <mxCell id="YdzRXmpzqwXNYGKjc3Bm-11" value="&amp;lt;&amp;lt;include&amp;gt;&amp;gt;" style="text;html=1;strokeColor=none;fillColor=none;align=center;verticalAlign=middle;whiteSpace=wrap;rounded=0;" vertex="1" parent="1">
          <mxGeometry x="448" y="283" width="60" height="30" as="geometry" />
        </mxCell>
        <mxCell id="YdzRXmpzqwXNYGKjc3Bm-12" value="EFETUA O PAGAMENTO" style="ellipse;whiteSpace=wrap;html=1;" vertex="1" parent="1">
          <mxGeometry x="299" y="440" width="140" height="70" as="geometry" />
        </mxCell>
        <mxCell id="YdzRXmpzqwXNYGKjc3Bm-13" value="CONSULTA HISTORICO DE RESERVA" style="ellipse;whiteSpace=wrap;html=1;" vertex="1" parent="1">
          <mxGeometry x="299" y="630" width="140" height="70" as="geometry" />
        </mxCell>
        <mxCell id="YdzRXmpzqwXNYGKjc3Bm-14" value="CONSULTA QUANTIDADE DE RESERVAS GERAIS" style="ellipse;whiteSpace=wrap;html=1;" vertex="1" parent="1">
          <mxGeometry x="299" y="720" width="140" height="70" as="geometry" />
        </mxCell>
        <mxCell id="YdzRXmpzqwXNYGKjc3Bm-15" value="ADM" style="shape=umlActor;verticalLabelPosition=bottom;verticalAlign=top;html=1;" vertex="1" parent="1">
          <mxGeometry x="760" y="223" width="50" height="90" as="geometry" />
        </mxCell>
        <mxCell id="YdzRXmpzqwXNYGKjc3Bm-19" value="RECEBE O PAGAMENTO" style="ellipse;whiteSpace=wrap;html=1;" vertex="1" parent="1">
          <mxGeometry x="300" y="540" width="140" height="70" as="geometry" />
        </mxCell>
        <mxCell id="YdzRXmpzqwXNYGKjc3Bm-23" value="" style="endArrow=open;endFill=1;endSize=12;html=1;rounded=0;entryX=0;entryY=0.5;entryDx=0;entryDy=0;" edge="1" parent="1" target="YdzRXmpzqwXNYGKjc3Bm-7">
          <mxGeometry width="160" relative="1" as="geometry">
            <mxPoint x="157" y="174" as="sourcePoint" />
            <mxPoint x="317" y="174" as="targetPoint" />
          </mxGeometry>
        </mxCell>
        <mxCell id="YdzRXmpzqwXNYGKjc3Bm-24" value="" style="endArrow=open;endFill=1;endSize=12;html=1;rounded=0;entryX=0.076;entryY=0.209;entryDx=0;entryDy=0;entryPerimeter=0;" edge="1" parent="1" target="YdzRXmpzqwXNYGKjc3Bm-8">
          <mxGeometry width="160" relative="1" as="geometry">
            <mxPoint x="159" y="201" as="sourcePoint" />
            <mxPoint x="290" y="210" as="targetPoint" />
          </mxGeometry>
        </mxCell>
        <mxCell id="YdzRXmpzqwXNYGKjc3Bm-25" value="ACESSO&amp;nbsp; AO CADASTRO" style="ellipse;whiteSpace=wrap;html=1;" vertex="1" parent="1">
          <mxGeometry x="299" y="158" width="140" height="70" as="geometry" />
        </mxCell>
        <mxCell id="YdzRXmpzqwXNYGKjc3Bm-27" value="" style="endArrow=open;endFill=1;endSize=12;html=1;rounded=0;entryX=1;entryY=0.5;entryDx=0;entryDy=0;" edge="1" parent="1" target="YdzRXmpzqwXNYGKjc3Bm-25">
          <mxGeometry width="160" relative="1" as="geometry">
            <mxPoint x="750" y="240" as="sourcePoint" />
            <mxPoint x="470" y="200" as="targetPoint" />
          </mxGeometry>
        </mxCell>
        <mxCell id="YdzRXmpzqwXNYGKjc3Bm-28" value="FAZ CARDÁPIO" style="ellipse;whiteSpace=wrap;html=1;" vertex="1" parent="1">
          <mxGeometry x="299" y="340" width="140" height="70" as="geometry" />
        </mxCell>
        <mxCell id="YdzRXmpzqwXNYGKjc3Bm-29" value="" style="endArrow=open;endFill=1;endSize=12;html=1;rounded=0;entryX=1;entryY=0.5;entryDx=0;entryDy=0;" edge="1" parent="1" target="YdzRXmpzqwXNYGKjc3Bm-28">
          <mxGeometry width="160" relative="1" as="geometry">
            <mxPoint x="740" y="300" as="sourcePoint" />
            <mxPoint x="710" y="360" as="targetPoint" />
          </mxGeometry>
        </mxCell>
        <mxCell id="YdzRXmpzqwXNYGKjc3Bm-31" value="" style="endArrow=open;endFill=1;endSize=12;html=1;rounded=0;entryX=1;entryY=0;entryDx=0;entryDy=0;" edge="1" parent="1" target="YdzRXmpzqwXNYGKjc3Bm-19">
          <mxGeometry width="160" relative="1" as="geometry">
            <mxPoint x="750" y="320" as="sourcePoint" />
            <mxPoint x="730" y="570" as="targetPoint" />
          </mxGeometry>
        </mxCell>
        <mxCell id="YdzRXmpzqwXNYGKjc3Bm-32" value="" style="endArrow=open;endFill=1;endSize=12;html=1;rounded=0;entryX=1;entryY=0;entryDx=0;entryDy=0;" edge="1" parent="1" target="YdzRXmpzqwXNYGKjc3Bm-14">
          <mxGeometry width="160" relative="1" as="geometry">
            <mxPoint x="770" y="350" as="sourcePoint" />
            <mxPoint x="730" y="490" as="targetPoint" />
          </mxGeometry>
        </mxCell>
        <mxCell id="YdzRXmpzqwXNYGKjc3Bm-33" value="" style="endArrow=open;endFill=1;endSize=12;html=1;rounded=0;entryX=0;entryY=0;entryDx=0;entryDy=0;" edge="1" parent="1" target="YdzRXmpzqwXNYGKjc3Bm-12">
          <mxGeometry width="160" relative="1" as="geometry">
            <mxPoint x="170" y="230" as="sourcePoint" />
            <mxPoint x="380" y="330" as="targetPoint" />
          </mxGeometry>
        </mxCell>
        <mxCell id="YdzRXmpzqwXNYGKjc3Bm-34" value="" style="endArrow=open;endFill=1;endSize=12;html=1;rounded=0;entryX=0;entryY=0;entryDx=0;entryDy=0;" edge="1" parent="1" target="YdzRXmpzqwXNYGKjc3Bm-13">
          <mxGeometry width="160" relative="1" as="geometry">
            <mxPoint x="160" y="270" as="sourcePoint" />
            <mxPoint x="380" y="580" as="targetPoint" />
          </mxGeometry>
        </mxCell>
      </root>
    </mxGraphModel>
  </diagram>
</mxfile>
